HIERARCHY
ROOT Hips
{
	OFFSET 0.00 0.00 0.00
	CHANNELS 6 Xposition Yposition Zposition Xrotation Yrotation Zrotation
	JOINT Spine
	{
		OFFSET 0.00000 7.17041 0.00000
		CHANNELS 3 Xrotation Yrotation Zrotation
		JOINT Head
		{
			OFFSET 0.00000 14.27615 0.00000
			CHANNELS 3 Xrotation Yrotation Zrotation
			End Site
			{
				OFFSET 0.00000 4.52755 0.00000
			}
		}
		JOINT LeftShoulder
		{
			OFFSET 0.00000 10.71824 0.00000
			CHANNELS 3 Xrotation Yrotation Zrotation
			JOINT LeftArm
			{
				OFFSET 7.05887 0.00000 0.00000
				CHANNELS 3 Xrotation Yrotation Zrotation
				JOINT LeftForeArm
				{
					OFFSET 10.95552 0.00000 0.00000
					CHANNELS 3 Yrotation Zrotation Xrotation
					JOINT LeftHand
					{
						OFFSET 8.19372 0.00000 0.00000
						CHANNELS 3 Xrotation Yrotation Zrotation
						JOINT LeftHandThumb1
						{
							OFFSET 0.00000 0.00000 0.00000
							CHANNELS 3 Xrotation Zrotation Yrotation
							End Site
							{
								OFFSET 0.00000 0.00000 3.93700
							}
						}
						End Site
						{
							OFFSET 3.93700 0.00000 0.00000
						}
					}
				}
			}
		}
		JOINT RightShoulder
		{
			OFFSET 0.00000 10.71824 0.00000
			CHANNELS 3 Xrotation Yrotation Zrotation
			JOINT RightArm
			{
				OFFSET -7.05887 0.00000 0.00000
				CHANNELS 3 Xrotation Yrotation Zrotation
				JOINT RightForeArm
				{
					OFFSET -10.95552 0.00000 0.00000
					CHANNELS 3 Yrotation Zrotation Xrotation
					JOINT RightHand
					{
						OFFSET -8.19372 0.00000 0.00000
						CHANNELS 3 Xrotation Yrotation Zrotation
						JOINT RightHandThumb1
						{
							OFFSET 0.00000 0.00000 0.00000
							CHANNELS 3 Xrotation Zrotation Yrotation
							End Site
							{
								OFFSET 0.00000 0.00000 3.93700
							}
						}
						End Site
						{
							OFFSET -3.93700 0.00000 0.00000
						}
					}
				}
			}
		}
	}
	JOINT LeftUpLeg
	{
		OFFSET 4.31835 0.00000 0.00000
		CHANNELS 3 Xrotation Yrotation Zrotation
		JOINT LeftLeg
		{
			OFFSET 0.00000 -17.32364 0.00000
			CHANNELS 3 Xrotation Yrotation Zrotation
			JOINT LeftFoot
			{
				OFFSET 0.00000 -16.27037 0.00000
				CHANNELS 3 Xrotation Yrotation Zrotation
				JOINT LeftToeBase
				{
					OFFSET 0.00000 -1.27412 4.75510
					CHANNELS 3 Xrotation Yrotation Zrotation
					End Site
					{
						OFFSET 0.00000 0.00000 2.95275
					}
				}
			}
		}
	}
	JOINT RightUpLeg
	{
		OFFSET -4.31835 0.00000 0.00000
		CHANNELS 3 Xrotation Yrotation Zrotation
		JOINT RightLeg
		{
			OFFSET 0.00000 -17.32364 0.00000
			CHANNELS 3 Xrotation Yrotation Zrotation
			JOINT RightFoot
			{
				OFFSET 0.00000 -16.27037 0.00000
				CHANNELS 3 Xrotation Yrotation Zrotation
				JOINT RightToeBase
				{
					OFFSET 0.00000 -1.27412 4.75510
					CHANNELS 3 Xrotation Yrotation Zrotation
					End Site
					{
						OFFSET 0.00000 0.00000 2.95275
					}
				}
			}
		}
	}
}
MOTION
Frames: 13
Frame Time: 0.008333
 -5.8856 35.1254 -8.9656 -0.2156 -2.5357 -5.4148 -2.6811 -2.6813 10.1615 0.2042 6.7938 -9.3715 11.9130 26.1784 5.2069 -58.4383 1.6634 -17.6813 -4.7087 0.0000 22.5221 0.6070 4.6544 -7.4390 33.1476 -0.0000 26.2537 -14.9660 -2.9120 -22.5734 -19.0449 -8.0908 16.9685 15.5182 -0.0000 30.9243 1.0635 -7.4532 8.1446 32.8623 0.0000 -24.3270 9.8558 13.6578 4.5387 -9.7803 -0.0000 -0.0000 -15.5763 29.2919 7.3552 22.7484 0.0000 -0.0000 9.4836 -5.6519 3.3462 -5.0930 -0.0000 -0.0000 -5.8366 -26.9199 -3.1047 11.5813 0.0000 -0.0000
 -5.8868 35.1252 -8.9650 -0.2145 -2.5531 -5.4156 -2.6725 -2.6682 10.1606 0.1760 6.7721 -9.3669 11.9122 26.1882 5.2146 -58.4739 1.6937 -17.6739 -4.7227 0.0000 22.5530 0.6019 4.6357 -7.4065 33.1476 -0.0000 26.2537 -14.9786 -2.9145 -22.5868 -19.0561 -8.1050 16.9913 15.5293 -0.0000 30.9353 1.0637 -7.4644 8.1340 32.8623 0.0000 -24.3270 9.8598 13.6817 4.5354 -9.7925 0.0000 0.0000 -15.5678 29.2954 7.3577 22.7552 0.0000 -0.0000 9.4858 -5.6717 3.3498 -5.1016 0.0000 -0.0000 -5.8353 -26.8835 -3.1056 11.6048 0.0000 -0.0000
 -5.8882 35.1250 -8.9646 -0.2129 -2.5803 -5.4196 -2.6677 -2.6423 10.1611 0.1549 6.7509 -9.3565 11.9105 26.1939 5.2205 -58.4721 1.6900 -17.6605 -4.7115 0.0000 22.5323 0.6021 4.6474 -7.3897 33.1476 -0.0000 26.2537 -14.9944 -2.9153 -22.5911 -19.0295 -8.1090 17.0050 15.5398 -0.0000 30.9032 1.0630 -7.4748 8.1174 32.8623 0.0000 -24.3270 9.8620 13.7029 4.5360 -9.7954 -0.0000 -0.0000 -15.5798 29.3106 7.3440 22.7796 0.0000 -0.0000 9.4868 -5.6608 3.3511 -5.1163 0.0000 -0.0000 -5.8213 -26.8785 -3.0885 11.6165 -0.0000 -0.0000
 -5.8899 35.1253 -8.9648 -0.2125 -2.5961 -5.4216 -2.6582 -2.6339 10.1552 0.1367 6.7474 -9.3387 11.9063 26.2013 5.2263 -58.4700 1.6980 -17.6431 -4.7207 0.0000 22.5377 0.5995 4.6369 -7.3750 33.1476 -0.0000 26.2537 -14.9986 -2.9019 -22.5820 -19.0380 -8.1312 17.0053 15.5431 -0.0000 30.9283 1.0616 -7.4637 8.1184 32.8623 0.0000 -24.3270 9.8649 13.6815 4.5407 -9.7941 -0.0000 -0.0000 -15.5785 29.3384 7.3692 22.7504 -0.0000 -0.0000 9.4873 -5.6671 3.3568 -5.1241 0.0000 -0.0000 -5.8048 -26.8599 -3.0984 11.5771 -0.0000 0.0000
 -5.8920 35.1254 -8.9647 -0.2108 -2.6186 -5.4236 -2.6552 -2.6156 10.1479 0.1234 6.7366 -9.3194 11.9035 26.1961 5.2382 -58.4578 1.7000 -17.6180 -4.7066 0.0000 22.5190 0.5985 4.6416 -7.3551 33.1476 -0.0000 26.2537 -14.9877 -2.9146 -22.5704 -19.0520 -8.1239 17.0103 15.5409 -0.0000 30.9266 1.0642 -7.4822 8.1187 32.8623 0.0000 -24.3270 9.8604 13.6947 4.5437 -9.7865 -0.0000 -0.0000 -15.5777 29.3557 7.3669 22.7254 0.0000 -0.0000 9.4886 -5.6604 3.3592 -5.1383 -0.0000 0.0000 -5.7970 -26.8534 -3.0869 11.6118 0.0000 -0.0000
 -5.8939 35.1254 -8.9648 -0.2095 -2.6422 -5.4298 -2.6494 -2.5956 10.1497 0.1040 6.7153 -9.3120 11.9168 26.1970 5.2421 -58.4757 1.7247 -17.5980 -4.7474 0.0000 22.5850 0.6115 4.6921 -7.4332 33.1476 -0.0000 26.2537 -14.9797 -2.9178 -22.5705 -19.0593 -8.1281 17.0246 15.5331 -0.0000 30.9128 1.0609 -7.4847 8.0908 32.8623 0.0000 -24.3270 9.8643 13.6801 4.5515 -9.7875 -0.0000 0.0000 -15.5878 29.3731 7.4141 22.7322 -0.0000 0.0000 9.4864 -5.6625 3.3639 -5.1423 0.0000 -0.0000 -5.7776 -26.8165 -3.0548 11.5385 -0.0000 0.0000
 -5.8956 35.1253 -8.9650 -0.2064 -2.6625 -5.4346 -2.6489 -2.5866 10.1515 0.1016 6.7673 -9.2784 11.9122 26.1950 5.2407 -58.4537 1.7117 -17.5728 -4.7222 0.0000 22.4206 0.6066 4.7050 -7.3544 33.1476 -0.0000 26.2537 -14.9695 -2.9083 -22.5719 -19.0619 -8.1426 17.0383 15.5332 -0.0000 30.9622 1.0545 -7.4635 8.0654 32.8623 0.0000 -24.3270 9.8638 13.6691 4.5565 -9.7859 -0.0000 -0.0000 -15.5933 29.4038 7.4236 22.7019 -0.0000 0.0000 9.4864 -5.6519 3.3708 -5.1566 0.0000 0.0000 -5.7720 -26.8108 -3.0557 11.5891 -0.0000 0.0000
 -5.8972 35.1252 -8.9650 -0.2053 -2.6980 -5.4420 -2.6502 -2.5602 10.1636 0.1075 6.7796 -9.2909 11.9306 26.1818 5.2341 -58.4529 1.7250 -17.5401 -4.7227 0.0000 22.3930 0.6075 4.7054 -7.3647 33.1476 -0.0000 26.2537 -14.9507 -2.9006 -22.5611 -19.0587 -8.1444 17.0047 15.5325 -0.0000 31.1181 1.0582 -7.3333 8.2340 32.8623 0.0000 -24.3270 9.8699 13.6848 4.5611 -9.7982 0.0000 -0.0000 -15.6020 29.4227 7.4222 22.7405 0.0000 -0.0000 9.4824 -5.6053 3.3729 -5.1656 0.0000 -0.0000 -5.7664 -26.8131 -3.0439 11.5878 0.0000 0.0000
 -5.8996 35.1253 -8.9649 -0.2038 -2.7132 -5.4434 -2.6444 -2.5518 10.1535 0.0951 6.7504 -9.2826 11.9311 26.1871 5.2517 -58.4767 1.7526 -17.5336 -4.7332 0.0000 22.4465 0.6020 4.6925 -7.3191 33.1476 -0.0000 26.2537 -14.9263 -2.9153 -22.5432 -19.0960 -8.1427 17.0082 15.5330 -0.0000 31.1428 1.0628 -7.3262 8.2777 32.8623 0.0000 -24.3270 9.8672 13.6676 4.5681 -9.7873 0.0000 0.0000 -15.6126 29.4387 7.4563 22.7454 0.0000 -0.0000 9.4863 -5.5932 3.3745 -5.1809 0.0000 -0.0000 -5.7521 -26.8032 -3.0223 11.5656 -0.0000 0.0000
 -5.9027 35.1248 -8.9653 -0.2037 -2.7368 -5.4490 -2.6362 -2.5210 10.1483 0.0758 6.7329 -9.2750 11.9043 26.1927 5.2794 -58.4717 1.7532 -17.5401 -4.7344 0.0000 22.4777 0.6036 4.6504 -7.4034 33.1476 -0.0000 26.2537 -14.9339 -2.9217 -22.5403 -19.0905 -8.1606 17.0185 15.5520 -0.0000 31.1862 1.0683 -7.3557 8.2873 32.8623 0.0000 -24.3270 9.8708 13.6584 4.5761 -9.7909 -0.0000 -0.0000 -15.6343 29.4561 7.4762 22.7649 -0.0000 0.0000 9.4884 -5.5750 3.3838 -5.1949 0.0000 -0.0000 -5.7507 -26.7943 -3.0542 11.5923 0.0000 0.0000
 -5.9035 35.1251 -8.9649 -0.1997 -2.7733 -5.4539 -2.6367 -2.5030 10.1557 0.0677 6.7321 -9.2844 11.9072 26.2130 5.2788 -58.4873 1.7608 -17.5365 -4.7406 0.0000 22.5020 0.6051 4.6630 -7.4021 33.1476 -0.0000 26.2537 -14.9505 -2.9082 -22.5423 -19.0650 -8.1514 17.0371 15.5426 -0.0000 31.1599 1.0665 -7.3555 8.2732 32.8623 0.0000 -24.3270 9.8779 13.6590 4.5762 -9.8015 -0.0000 -0.0000 -15.6186 29.4932 7.4864 22.7164 0.0000 -0.0000 9.4828 -5.5335 3.3820 -5.2064 -0.0000 0.0000 -5.7294 -26.7972 -3.0109 11.6181 0.0000 -0.0000
 -5.9050 35.1250 -8.9652 -0.1958 -2.8093 -5.4574 -2.6432 -2.4752 10.1567 0.0828 6.7364 -9.2795 11.9396 26.2034 5.2593 -58.4808 1.7359 -17.4992 -4.7285 0.0000 22.4321 0.6095 4.6940 -7.4065 33.1476 -0.0000 26.2537 -14.9269 -2.8968 -22.5408 -19.0517 -8.1708 17.0458 15.5493 -0.0000 31.1408 1.0626 -7.3310 8.2706 32.8623 0.0000 -24.3270 9.8862 13.6717 4.5753 -9.8189 -0.0000 0.0000 -15.6236 29.5152 7.5036 22.7560 0.0000 0.0000 9.4707 -5.5149 3.3827 -5.2043 -0.0000 -0.0000 -5.7429 -26.8188 -3.0412 11.5151 0.0000 -0.0000
 -5.9078 35.1250 -8.9659 -0.1941 -2.8216 -5.4606 -2.6387 -2.4650 10.1462 0.0758 6.7324 -9.2634 11.9466 26.2059 5.2676 -58.4829 1.7361 -17.4901 -4.7487 0.0000 22.4473 0.6154 4.7282 -7.4241 33.1476 -0.0000 26.2537 -14.9093 -2.9099 -22.5238 -19.0711 -8.1674 17.0540 15.5381 -0.0000 31.1439 1.0610 -7.3233 8.2670 32.8623 0.0000 -24.3270 9.8801 13.6710 4.5827 -9.8130 -0.0000 0.0000 -15.6298 29.5288 7.5241 22.7415 0.0000 -0.0000 9.4727 -5.4819 3.3893 -5.2188 -0.0000 -0.0000 -5.7294 -26.7940 -3.0296 11.5894 0.0000 -0.0000
